<?xml version="1.0" ?><svg id="Trash_Can" style="enable-background:new 0 0 32 32;" version="1.1" viewBox="0 0 32 32" xml:space="preserve" xmlns="http://www.w3.org/2000/svg" xmlns:xlink="http://www.w3.org/1999/xlink"><style type="text/css">
	.st0{fill:#E4EDF2;}
	.st1{fill:#B2B9BE;}
</style><g><path class="st0" d="M5.656,8.847v17.713C5.656,28.457,7.199,30,9.095,30h13.809c1.896,0,3.439-1.543,3.439-3.439V8.847H5.656z    M19.672,13.138c0-0.552,0.447-1,1-1s1,0.448,1,1v10.575c0,0.553-0.447,1-1,1s-1-0.447-1-1V13.138z M15,13.138c0-0.552,0.448-1,1-1   s1,0.448,1,1v10.575c0,0.553-0.448,1-1,1s-1-0.447-1-1V13.138z M10.328,13.138c0-0.552,0.448-1,1-1s1,0.448,1,1v10.575   c0,0.553-0.448,1-1,1s-1-0.447-1-1V13.138z"/><path class="st1" d="M27.5,6.847h-5.595C21.415,4.098,18.957,2,16,2s-5.415,2.098-5.905,4.847H4.5c-0.552,0-1,0.448-1,1   s0.448,1,1,1h1.156h20.688H27.5c0.553,0,1-0.448,1-1S28.053,6.847,27.5,6.847z M16,4c1.843,0,3.383,1.212,3.845,2.847h-7.69   C12.617,5.212,14.157,4,16,4z"/><path class="st1" d="M16,24.713c0.552,0,1-0.447,1-1V13.138c0-0.552-0.448-1-1-1s-1,0.448-1,1v10.575   C15,24.266,15.448,24.713,16,24.713z"/><path class="st1" d="M11.328,24.713c0.552,0,1-0.447,1-1V13.138c0-0.552-0.448-1-1-1s-1,0.448-1,1v10.575   C10.328,24.266,10.776,24.713,11.328,24.713z"/><path class="st1" d="M20.672,24.713c0.553,0,1-0.447,1-1V13.138c0-0.552-0.447-1-1-1s-1,0.448-1,1v10.575   C19.672,24.266,20.119,24.713,20.672,24.713z"/></g></svg>